<?xml version="1.0" encoding="UTF-8"?>
<svg xmlns="http://www.w3.org/2000/svg" xmlns:xlink="http://www.w3.org/1999/xlink"
     width="2000" height="2000" viewBox="-500.0 -500.0 1000 1000">
<defs>
</defs>
<path d="M0,0 L623.076923076923,0" stroke="black" />
<path d="M0,-10 L623.076923076923,-10" stroke="black" />
<path d="M0,-20 L623.076923076923,-20" stroke="black" />
<path d="M0,-30 L623.076923076923,-30" stroke="black" />
<path d="M0,-40 L623.076923076923,-40" stroke="black" />
<path d="M0,-50 L623.076923076923,-50" stroke="black" />
<text x="-15" y="-2.5" font-size="10" fill="black">e</text>
<text x="-15" y="-12.5" font-size="10" fill="black">B</text>
<text x="-15" y="-22.5" font-size="10" fill="black">G</text>
<text x="-15" y="-32.5" font-size="10" fill="black">D</text>
<text x="-15" y="-42.5" font-size="10" fill="black">A</text>
<text x="-15" y="-52.5" font-size="10" fill="black">E</text>
<rect x="-0.5" y="-50" width="1" height="50" />
<rect x="47.57692307692308" y="-50" width="1" height="50" />
<rect x="93.73076923076923" y="-50" width="1" height="50" />
<rect x="137.96153846153845" y="-50" width="1" height="50" />
<rect x="180.26923076923077" y="-50" width="1" height="50" />
<rect x="220.65384615384616" y="-50" width="1" height="50" />
<rect x="259.11538461538464" y="-50" width="1" height="50" />
<rect x="295.6538461538462" y="-50" width="1" height="50" />
<rect x="330.2692307692308" y="-50" width="1" height="50" />
<rect x="362.96153846153845" y="-50" width="1" height="50" />
<rect x="393.7307692307692" y="-50" width="1" height="50" />
<rect x="422.576923076923" y="-50" width="1" height="50" />
<rect x="449.5" y="-50" width="1" height="50" />
<rect x="474.5" y="-50" width="1" height="50" />
<rect x="497.5769230769231" y="-50" width="1" height="50" />
<rect x="518.7307692307693" y="-50" width="1" height="50" />
<rect x="537.9615384615385" y="-50" width="1" height="50" />
<rect x="555.2692307692307" y="-50" width="1" height="50" />
<rect x="570.6538461538462" y="-50" width="1" height="50" />
<rect x="584.1153846153846" y="-50" width="1" height="50" />
<rect x="595.6538461538462" y="-50" width="1" height="50" />
<rect x="605.2692307692307" y="-50" width="1" height="50" />
<rect x="612.9615384615385" y="-50" width="1" height="50" />
<rect x="618.7307692307692" y="-50" width="1" height="50" />
<circle cx="-7.5" cy="0.0" r="2" fill="white" stroke-width="1" stroke="black" />
<circle cx="24.118589743589745" cy="-5.0" r="2" />
<circle cx="116.58653846153845" cy="-5.0" r="2" />
<circle cx="201.3621794871795" cy="-5.0" r="2" />
<circle cx="278.4455128205129" cy="-5.0" r="2" />
<circle cx="314.1025641025641" cy="-5.0" r="2" />
<circle cx="379.6474358974359" cy="-5.0" r="2" />
<circle cx="437.5" cy="-5.0" r="2" />
<circle cx="463.5416666666667" cy="-5.0" r="2" />
<circle cx="509.8557692307693" cy="-5.0" r="2" />
<circle cx="548.4775641025641" cy="-5.0" r="2" />
<circle cx="579.4070512820513" cy="-5.0" r="2" />
<circle cx="591.9871794871796" cy="-5.0" r="2" />
<circle cx="611.3782051282051" cy="-5.0" r="2" />
<circle cx="623.076923076923" cy="-5.0" r="2" />
<circle cx="-7.5" cy="0.0" r="2" fill="white" stroke-width="1" stroke="black" />
<circle cx="24.118589743589745" cy="-15.0" r="2" />
<circle cx="116.58653846153845" cy="-15.0" r="2" />
<circle cx="201.3621794871795" cy="-15.0" r="2" />
<circle cx="240.86538461538464" cy="-15.0" r="2" />
<circle cx="314.1025641025641" cy="-15.0" r="2" />
<circle cx="379.6474358974359" cy="-15.0" r="2" />
<circle cx="437.5" cy="-15.0" r="2" />
<circle cx="463.5416666666667" cy="-15.0" r="2" />
<circle cx="509.8557692307693" cy="-15.0" r="2" />
<circle cx="548.4775641025641" cy="-15.0" r="2" />
<circle cx="564.9038461538462" cy="-15.0" r="2" />
<circle cx="591.9871794871796" cy="-15.0" r="2" />
<circle cx="611.3782051282051" cy="-15.0" r="2" />
<circle cx="623.076923076923" cy="-15.0" r="2" />
<circle cx="-7.5" cy="0.0" r="2" fill="white" stroke-width="1" stroke="black" />
<circle cx="71.31410256410255" cy="-25.0" r="2" />
<circle cx="159.93589743589743" cy="-25.0" r="2" />
<circle cx="201.3621794871795" cy="-25.0" r="2" />
<circle cx="278.4455128205129" cy="-25.0" r="2" />
<circle cx="347.83653846153845" cy="-25.0" r="2" />
<circle cx="379.6474358974359" cy="-25.0" r="2" />
<circle cx="437.5" cy="-25.0" r="2" />
<circle cx="487.6602564102564" cy="-25.0" r="2" />
<circle cx="530.1282051282051" cy="-25.0" r="2" />
<circle cx="548.4775641025641" cy="-25.0" r="2" />
<circle cx="579.4070512820513" cy="-25.0" r="2" />
<circle cx="602.6442307692307" cy="-25.0" r="2" />
<circle cx="611.3782051282051" cy="-25.0" r="2" />
<circle cx="623.076923076923" cy="-25.0" r="2" />
<circle cx="-7.5" cy="0.0" r="2" fill="white" stroke-width="1" stroke="black" />
<circle cx="71.31410256410255" cy="-35.0" r="2" />
<circle cx="116.58653846153845" cy="-35.0" r="2" />
<circle cx="201.3621794871795" cy="-35.0" r="2" />
<circle cx="278.4455128205129" cy="-35.0" r="2" />
<circle cx="347.83653846153845" cy="-35.0" r="2" />
<circle cx="379.6474358974359" cy="-35.0" r="2" />
<circle cx="437.5" cy="-35.0" r="2" />
<circle cx="487.6602564102564" cy="-35.0" r="2" />
<circle cx="509.8557692307693" cy="-35.0" r="2" />
<circle cx="548.4775641025641" cy="-35.0" r="2" />
<circle cx="579.4070512820513" cy="-35.0" r="2" />
<circle cx="602.6442307692307" cy="-35.0" r="2" />
<circle cx="611.3782051282051" cy="-35.0" r="2" />
<circle cx="623.076923076923" cy="-35.0" r="2" />
<circle cx="-7.5" cy="0.0" r="2" fill="white" stroke-width="1" stroke="black" />
<circle cx="71.31410256410255" cy="-45.0" r="2" />
<circle cx="116.58653846153845" cy="-45.0" r="2" />
<circle cx="201.3621794871795" cy="-45.0" r="2" />
<circle cx="278.4455128205129" cy="-45.0" r="2" />
<circle cx="314.1025641025641" cy="-45.0" r="2" />
<circle cx="379.6474358974359" cy="-45.0" r="2" />
<circle cx="437.5" cy="-45.0" r="2" />
<circle cx="487.6602564102564" cy="-45.0" r="2" />
<circle cx="509.8557692307693" cy="-45.0" r="2" />
<circle cx="548.4775641025641" cy="-45.0" r="2" />
<circle cx="579.4070512820513" cy="-45.0" r="2" />
<circle cx="591.9871794871796" cy="-45.0" r="2" />
<circle cx="611.3782051282051" cy="-45.0" r="2" />
<circle cx="623.076923076923" cy="-45.0" r="2" />
<circle cx="-7.5" cy="0.0" r="2" fill="white" stroke-width="1" stroke="black" />
<circle cx="24.118589743589745" cy="-55.0" r="2" />
<circle cx="116.58653846153845" cy="-55.0" r="2" />
<circle cx="201.3621794871795" cy="-55.0" r="2" />
<circle cx="278.4455128205129" cy="-55.0" r="2" />
<circle cx="314.1025641025641" cy="-55.0" r="2" />
<circle cx="379.6474358974359" cy="-55.0" r="2" />
<circle cx="437.5" cy="-55.0" r="2" />
<circle cx="463.5416666666667" cy="-55.0" r="2" />
<circle cx="509.8557692307693" cy="-55.0" r="2" />
<circle cx="548.4775641025641" cy="-55.0" r="2" />
<circle cx="579.4070512820513" cy="-55.0" r="2" />
<circle cx="591.9871794871796" cy="-55.0" r="2" />
<circle cx="611.3782051282051" cy="-55.0" r="2" />
<circle cx="623.076923076923" cy="-55.0" r="2" />
</svg>